<svg width="375" height="360" viewBox="0 0 375 360" fill="none" xmlns="http://www.w3.org/2000/svg">
<g clip-path="url(#clip0_854_1525)">
<rect width="375" height="360" fill="#62ABD9"/>
<g opacity="0.39">
<circle cx="187" cy="68" r="133" fill="white"/>
<path d="M191.29 89.4517H182.71L186.834 80.8711L191.29 89.4517Z" fill="#62ABD9" stroke="#62ABD9"/>
<path d="M183.486 8.04016L118.355 128.065H138.411C139.139 128.065 139.809 127.67 140.161 127.033L186.506 43.2852L232.654 127.03C233.006 127.668 233.673 128.065 234.402 128.065H255.645L189.711 8.19457C189.623 8.03481 189.455 7.93555 189.272 7.93555H183.662C183.589 7.93555 183.521 7.97569 183.486 8.04016Z" fill="#62ABD9" stroke="#62ABD9"/>
</g>
<ellipse cx="187.5" cy="192.5" rx="21" ry="21.5" fill="white"/>
<path d="M188.177 195.969H186.823L187.474 194.582L188.177 195.969Z" fill="#62ABD9" stroke="#62ABD9"/>
<path d="M186.898 182.897L176.661 202.21H178.822C179.556 202.21 180.232 201.808 180.581 201.161L187.422 188.505L194.232 201.158C194.581 201.806 195.257 202.21 195.993 202.21H198.339L188.047 183.054C187.96 182.892 187.791 182.791 187.606 182.791H187.074C187 182.791 186.932 182.832 186.898 182.897Z" fill="#62ABD9" stroke="#62ABD9"/>
<path d="M115.608 250H111.352L119.8 226.608H123.992L132.44 250H128.12L126.232 244.592H117.496L115.608 250ZM121.368 233.584L118.712 241.136H125.048L122.36 233.584C122.168 232.976 121.944 232.272 121.88 231.792C121.784 232.24 121.592 232.944 121.368 233.584ZM139.421 250H135.325V226.608H144.253C149.565 226.608 152.669 229.296 152.669 233.904C152.669 237.04 151.197 239.28 148.445 240.4L152.893 250H148.413L144.445 241.264H139.421V250ZM139.421 230.256V237.648H144.253C146.845 237.648 148.381 236.272 148.381 233.904C148.381 231.568 146.845 230.256 144.253 230.256H139.421ZM154.354 230.384V226.608H172.146V230.384H165.298V250H161.202V230.384H154.354ZM179.325 226.608V250H175.229V226.608H179.325ZM188.494 250H184.462V226.608H188.526L199.502 243.184V226.608H203.535V250H199.502L188.494 233.424V250ZM210.681 250H206.425L214.873 226.608H219.065L227.513 250H223.193L221.305 244.592H212.569L210.681 250ZM216.441 233.584L213.785 241.136H220.121L217.433 233.584C217.241 232.976 217.017 232.272 216.953 231.792C216.857 232.24 216.665 232.944 216.441 233.584ZM234.494 226.608V246.224H244.286V250H230.398V226.608H234.494ZM245.412 233.136C245.412 229.04 248.804 226.192 253.732 226.192C258.468 226.192 261.476 228.816 261.604 233.04H257.508C257.412 231.024 255.972 229.84 253.668 229.84C251.14 229.84 249.508 231.056 249.508 233.008C249.508 234.672 250.404 235.6 252.356 236.048L256.036 236.848C260.036 237.712 261.988 239.76 261.988 243.248C261.988 247.6 258.596 250.416 253.444 250.416C248.452 250.416 245.188 247.76 245.092 243.568H249.188C249.22 245.552 250.82 246.736 253.444 246.736C256.164 246.736 257.892 245.552 257.892 243.6C257.892 242.032 257.092 241.104 255.172 240.688L251.46 239.856C247.492 238.992 245.412 236.72 245.412 233.136Z" fill="white"/>
<circle cx="171.336" cy="313.501" r="20.6499" transform="rotate(-13.568 171.336 313.501)" fill="white" fill-opacity="0.4"/>
<circle cx="171.336" cy="313.499" r="16.8096" transform="rotate(-13.568 171.336 313.499)" fill="white" stroke="#367FBF" stroke-width="3"/>
<path fill-rule="evenodd" clip-rule="evenodd" d="M176.714 307.269C176.901 307.188 177.107 307.16 177.309 307.188C177.511 307.216 177.702 307.299 177.862 307.427C178.022 307.555 178.145 307.725 178.219 307.918C178.292 308.112 178.314 308.322 178.281 308.526L176.557 319.168C176.39 320.195 175.283 320.784 174.358 320.272C173.585 319.845 172.436 319.185 171.402 318.498C170.885 318.154 169.302 317.051 169.497 316.267C169.664 315.596 172.324 313.076 173.844 311.577C174.441 310.989 174.168 310.649 173.464 311.191C171.715 312.535 168.906 314.58 167.977 315.155C167.158 315.663 166.731 315.749 166.22 315.663C165.288 315.505 164.424 315.26 163.719 314.963C162.766 314.56 162.812 313.227 163.718 312.838L176.714 307.269Z" fill="#367FBF"/>
<circle cx="204.172" cy="313.501" r="20.6499" transform="rotate(-13.568 204.172 313.501)" fill="white" fill-opacity="0.4"/>
<circle cx="204.172" cy="313.501" r="16.8096" transform="rotate(-13.568 204.172 313.501)" fill="white" stroke="#367FBF" stroke-width="3"/>
<path d="M207.786 307.842H209.721L205.494 312.624L210.467 319.132H206.574L203.524 315.184L200.034 319.132H198.098L202.62 314.016L197.849 307.842H201.842L204.598 311.449L207.786 307.842ZM207.108 317.986H208.18L201.258 308.928H200.109L207.108 317.986Z" fill="#367FBF"/>
</g>
<defs>
<clipPath id="clip0_854_1525">
<rect width="375" height="360" fill="white"/>
</clipPath>
</defs>
</svg>
